<svg xmlns="http://www.w3.org/2000/svg" width="1200" height="750" viewBox="0 0 1200 750">
  <defs>
    <style>
      @import url('https://fonts.googleapis.com/css2?family=Inter:wght@400;600;700&amp;family=JetBrains+Mono:wght@400;500&amp;display=swap');
      .font-ui { font-family: 'Inter', -apple-system, BlinkMacSystemFont, 'Segoe UI', sans-serif; }
      .font-mono { font-family: 'JetBrains Mono', 'SF Mono', 'Consolas', monospace; }
    </style>
  </defs>

  <!-- Window chrome -->
  <rect width="1200" height="750" rx="10" fill="#1a1a2e"/>
  <rect y="0" width="1200" height="38" rx="10" fill="#1a1a2e"/>
  <rect y="20" width="1200" height="18" fill="#1a1a2e"/>
  <!-- Window dots -->
  <circle cx="20" cy="16" r="6" fill="#ff5555" opacity="0.8"/>
  <circle cx="40" cy="16" r="6" fill="#f1fa8c" opacity="0.8"/>
  <circle cx="60" cy="16" r="6" fill="#50fa7b" opacity="0.8"/>

  <!-- Title Bar -->
  <rect x="0" y="0" width="1200" height="38" rx="10" fill="#1a1a2e"/>
  <rect x="0" y="20" width="1200" height="18" fill="#1a1a2e"/>
  <line x1="0" y1="38" x2="1200" y2="38" stroke="#2d2d50" stroke-width="1"/>
  <text x="90" y="24" class="font-ui" fill="#6c63ff" font-size="16">🍋</text>
  <text x="110" y="24" class="font-ui" fill="#8888aa" font-size="12" font-weight="600" letter-spacing="0.5">Citrus Editor</text>
  <text x="600" y="24" class="font-ui" fill="#8888aa" font-size="12" text-anchor="middle">meeting-notes.md</text>
  <text x="1150" y="24" class="font-ui" fill="#8888aa" font-size="14">?</text>
  <text x="1175" y="24" class="font-ui" fill="#8888aa" font-size="14">☰</text>

  <!-- Sidebar -->
  <rect x="0" y="38" width="240" height="688" fill="#1e1e32"/>
  <line x1="240" y1="38" x2="240" y2="750" stroke="#2d2d50" stroke-width="1"/>
  <!-- Sidebar header -->
  <text x="16" y="62" class="font-ui" fill="#5e5e80" font-size="11" font-weight="700" letter-spacing="1.5">DOCUMENTS</text>
  <text x="216" y="62" class="font-ui" fill="#8888aa" font-size="16" text-anchor="end">+</text>

  <!-- File tree items -->
  <!-- Active item -->
  <rect x="4" y="72" width="232" height="30" rx="4" fill="#3a3a65"/>
  <text x="20" y="92" class="font-mono" fill="#ffb86c" font-size="11">¶</text>
  <text x="38" y="92" class="font-ui" fill="#c8c8e0" font-size="12">meeting-notes.md</text>

  <text x="20" y="120" class="font-mono" fill="#f1fa8c" font-size="11">JS</text>
  <text x="38" y="120" class="font-ui" fill="#c8c8e0" font-size="12">app.js</text>

  <text x="20" y="148" class="font-mono" fill="#8be9fd" font-size="11">TS</text>
  <text x="38" y="148" class="font-ui" fill="#c8c8e0" font-size="12">utils.ts</text>

  <text x="20" y="176" class="font-mono" fill="#ff79c6" font-size="11">⟨⟩</text>
  <text x="38" y="176" class="font-ui" fill="#c8c8e0" font-size="12">index.html</text>

  <text x="20" y="204" class="font-mono" fill="#50fa7b" font-size="11">#</text>
  <text x="38" y="204" class="font-ui" fill="#c8c8e0" font-size="12">style.css</text>

  <text x="20" y="232" class="font-mono" fill="#6c63ff" font-size="11">{}</text>
  <text x="38" y="232" class="font-ui" fill="#c8c8e0" font-size="12">config.json</text>

  <!-- Tab Bar -->
  <rect x="240" y="38" width="960" height="36" fill="#1a1a2e"/>
  <line x1="240" y1="74" x2="1200" y2="74" stroke="#2d2d50" stroke-width="1"/>

  <!-- Active tab -->
  <rect x="240" y="38" width="170" height="36" fill="#252540"/>
  <line x1="240" y1="74" x2="410" y2="74" stroke="#6c63ff" stroke-width="2"/>
  <text x="260" y="60" class="font-mono" fill="#ffb86c" font-size="10">¶</text>
  <text x="276" y="60" class="font-ui" fill="#c8c8e0" font-size="12">meeting-notes.md</text>
  <text x="398" y="60" class="font-ui" fill="#5e5e80" font-size="12">×</text>

  <!-- Inactive tab -->
  <rect x="410" y="38" width="120" height="36" fill="#1a1a2e"/>
  <text x="430" y="60" class="font-mono" fill="#f1fa8c" font-size="10">JS</text>
  <text x="446" y="60" class="font-ui" fill="#8888aa" font-size="12">app.js</text>
  <text x="518" y="60" class="font-ui" fill="#5e5e80" font-size="12">×</text>

  <!-- Inactive tab -->
  <rect x="530" y="38" width="120" height="36" fill="#1a1a2e"/>
  <text x="550" y="60" class="font-mono" fill="#8be9fd" font-size="10">TS</text>
  <text x="566" y="60" class="font-ui" fill="#8888aa" font-size="12">utils.ts</text>
  <text x="638" y="60" class="font-ui" fill="#5e5e80" font-size="12">×</text>

  <!-- Editor area -->
  <rect x="240" y="74" width="960" height="652" fill="#252540"/>

  <!-- Line numbers -->
  <rect x="240" y="74" width="48" height="652" fill="#1e1e32" opacity="0.5"/>
  <text x="278" y="98" class="font-mono" fill="#5e5e80" font-size="13" text-anchor="end">1</text>
  <text x="278" y="118" class="font-mono" fill="#5e5e80" font-size="13" text-anchor="end">2</text>
  <text x="278" y="138" class="font-mono" fill="#5e5e80" font-size="13" text-anchor="end">3</text>
  <text x="278" y="158" class="font-mono" fill="#5e5e80" font-size="13" text-anchor="end">4</text>
  <text x="278" y="178" class="font-mono" fill="#5e5e80" font-size="13" text-anchor="end">5</text>
  <text x="278" y="198" class="font-mono" fill="#5e5e80" font-size="13" text-anchor="end">6</text>
  <text x="278" y="218" class="font-mono" fill="#5e5e80" font-size="13" text-anchor="end">7</text>
  <text x="278" y="238" class="font-mono" fill="#5e5e80" font-size="13" text-anchor="end">8</text>
  <text x="278" y="258" class="font-mono" fill="#5e5e80" font-size="13" text-anchor="end">9</text>
  <text x="278" y="278" class="font-mono" fill="#5e5e80" font-size="13" text-anchor="end">10</text>
  <text x="278" y="298" class="font-mono" fill="#5e5e80" font-size="13" text-anchor="end">11</text>
  <text x="278" y="318" class="font-mono" fill="#5e5e80" font-size="13" text-anchor="end">12</text>
  <text x="278" y="338" class="font-mono" fill="#5e5e80" font-size="13" text-anchor="end">13</text>
  <text x="278" y="358" class="font-mono" fill="#5e5e80" font-size="13" text-anchor="end">14</text>
  <text x="278" y="378" class="font-mono" fill="#5e5e80" font-size="13" text-anchor="end">15</text>
  <text x="278" y="398" class="font-mono" fill="#5e5e80" font-size="13" text-anchor="end">16</text>

  <!-- Active line highlight -->
  <rect x="288" y="146" width="912" height="20" fill="#6c63ff" opacity="0.08"/>

  <!-- Editor content - meeting notes -->
  <text x="296" y="98" class="font-mono" fill="#c8c8e0" font-size="13">────────────────────────────────────</text>
  <text x="296" y="118" class="font-mono" fill="#ffb86c" font-size="13">2026/03/28 定例ミーティング</text>
  <text x="296" y="138" class="font-mono" fill="#c8c8e0" font-size="13">────────────────────────────────────</text>
  <text x="296" y="158" class="font-mono" fill="#c8c8e0" font-size="13"></text>
  <text x="296" y="178" class="font-mono" fill="#8888aa" font-size="13">## 参加者</text>
  <text x="296" y="198" class="font-mono" fill="#c8c8e0" font-size="13">- 田中、佐藤、鈴木</text>
  <text x="296" y="218" class="font-mono" fill="#c8c8e0" font-size="13"></text>
  <text x="296" y="238" class="font-mono" fill="#8888aa" font-size="13">## 議題</text>
  <text x="296" y="258" class="font-mono" fill="#c8c8e0" font-size="13">- 新規プロジェクトの進捗報告</text>
  <text x="296" y="278" class="font-mono" fill="#c8c8e0" font-size="13">- Q2の開発ロードマップ確認</text>
  <text x="296" y="298" class="font-mono" fill="#c8c8e0" font-size="13">- リリーススケジュールの調整</text>
  <text x="296" y="318" class="font-mono" fill="#c8c8e0" font-size="13"></text>
  <text x="296" y="338" class="font-mono" fill="#8888aa" font-size="13">## アクションアイテム</text>
  <text x="296" y="358" class="font-mono" fill="#c8c8e0" font-size="13">- [ ] 仕様書のレビュー（田中 → 3/31まで）</text>
  <text x="296" y="378" class="font-mono" fill="#c8c8e0" font-size="13">- [ ] テスト環境の構築（佐藤 → 4/3まで）</text>
  <text x="296" y="398" class="font-mono" fill="#c8c8e0" font-size="13">- [x] デザインカンプの共有（鈴木 → 完了）</text>

  <!-- Status Bar -->
  <rect x="0" y="726" width="1200" height="24" fill="#1a1a2e"/>
  <line x1="0" y1="726" x2="1200" y2="726" stroke="#2d2d50" stroke-width="1"/>
  <text x="1000" y="742" class="font-ui" fill="#8888aa" font-size="11">Ln 5, Col 12</text>
  <text x="1068" y="742" class="font-ui" fill="#8888aa" font-size="11">UTF-8</text>
  <text x="1120" y="742" class="font-ui" fill="#8888aa" font-size="11">Markdown</text>

  <!-- Save status -->
  <text x="16" y="742" class="font-ui" fill="#50fa7b" font-size="11">Saved</text>

  <!-- Window border -->
  <rect width="1200" height="750" rx="10" fill="none" stroke="#2d2d50" stroke-width="1"/>
</svg>